/* XPM */
static char *_2a13ea84497452ea1cd8bb591fb6c21SBneSDDOKLUbhwQN[] = {
/* columns rows colors chars-per-pixel */
"32 32 4 1 ",
"  c #679175",
". c #79A863",
"X c #9BB94E",
"o c #BFBA5B",
/* pixels */
"oXXXXXXXXXXXoXXXXXXXXXXXoooooXXX",
"XXXXX....XXXXXooXXXXXXXXoXXXXXXX",
"..........XXoooooXXXXXXXXX..XXX.",
"..........ooooooooooo..XX....XXX",
"XX..........oooooooo......XX..XX",
"XXX..XXX......ooo....XX..XXXX..X",
"XXX.XXXXXXXXXXXXXXXXXXXXXXXXXXXX",
"XXXXXXXX     XXX  XX..XXXXX....X",
"X   XXooo     X    ....X........",
"     ooooooo     o  ............",
".oo  oooooooo   ooo  o...XX.XXX.",
"Xooooooo...ooo oooooooo..XXXXXXX",
"ooooooo....ooooooXooooooooXXXXXX",
".oo...........ooXXXooooooooXXXXX",
".................XXXXXXoooXXXXX.",
"XXXXX..............XXX.....XXXXX",
"XX......XX.................XXXXX",
".......XXXX............ooo.XXXXX",
"XXXXXXXXXXX......XXooXoooooXXXXX",
"XXXXXXXXXXX....XXoooooooooooXXXX",
"XXXXXXXXXXXXXXXXooooooo...oooooX",
"XXXXXXXXXXXXXXXX...........ooooo",
"XXXXXXXXXXXXXXX....XX...........",
".XXXXXXXXXXX.....XXXXX..........",
"..XXXXXXXXXXXXXXXXXXXXXX....XXX.",
"XXXX    XXX     XXXXXooXX..XXXXX",
"XX       X       XXXooooX..XXXXX",
"X   oo      oooooXXooooooo..XXXX",
"   oooooo  ooooooooooooooooXXXXX",
"o   ooooooooooooooooooooooooXooo",
"ooo oooooXooooooooooooooooooXoXo",
"oooooooXXXXXoo...ooooXXoooooooXX"
};
