/* XPM */
static char *_81b6e456f1f493cf7b58f963cdc5bb7i5hZuGiJyexfEP8Q[] = {
/* columns rows colors chars-per-pixel */
"32 32 186 2 ",
"   c #161C2E",
".  c #1D1F31",
"X  c #221F2F",
"o  c #1C232F",
"O  c #1C2531",
"+  c #1F2832",
"@  c #202630",
"#  c #232334",
"$  c #202535",
"%  c #2F2232",
"&  c #292637",
"*  c #262F32",
"=  c #202B37",
"-  c #242837",
";  c #2B2F33",
":  c #2B2E3D",
">  c #3B2534",
",  c #30283A",
"<  c #362B3D",
"1  c #2E323E",
"2  c #2A393F",
"3  c #353A36",
"4  c #472835",
"5  c #5F2E39",
"6  c #374336",
"7  c #3D4B37",
"8  c #35473E",
"9  c #435239",
"0  c #47563A",
"q  c #48573A",
"w  c #49593A",
"e  c #55573F",
"r  c #50603C",
"t  c #586A3E",
"y  c #5A6D3F",
"u  c #3C2E40",
"i  c #2B3940",
"p  c #353745",
"a  c #423143",
"s  c #493546",
"d  c #4F3849",
"f  c #503849",
"g  c #563B4D",
"h  c #5B3E4F",
"j  c #613740",
"k  c #394C40",
"l  c #3A5141",
"z  c #3C5242",
"x  c #404149",
"c  c #40404C",
"v  c #415845",
"b  c #4A4954",
"n  c #5D4755",
"m  c #634253",
"M  c #6A4D5B",
"N  c #754758",
"B  c #7C4E5F",
"V  c #486249",
"C  c #4D6B4C",
"Z  c #52704E",
"A  c #54734F",
"S  c #4E6D5E",
"D  c #5A7C52",
"F  c #5C7F53",
"G  c #6A6B44",
"H  c #6D6E44",
"J  c #6B6B4E",
"K  c #667B41",
"L  c #687D42",
"P  c #767547",
"I  c #66715E",
"U  c #636D61",
"Y  c #84373F",
"T  c #913A41",
"R  c #9D3D43",
"E  c #86414C",
"W  c #864450",
"Q  c #8D4753",
"!  c #824E5E",
"~  c #874E5D",
"^  c #8E4D5B",
"/  c #9A4D59",
"(  c #86505E",
")  c #A44046",
"_  c #B84C4E",
"`  c #AB4D55",
"'  c #B74D53",
"]  c #B14C54",
"[  c #BD4C52",
"{  c #A1565F",
"}  c #B55359",
"|  c #845968",
" . c #9A5F69",
".. c #A75961",
"X. c #AE5F63",
"o. c #88606D",
"O. c #94717A",
"+. c #D54C4D",
"@. c #DB4C4C",
"#. c #C34C51",
"$. c #C94D50",
"%. c #D75654",
"&. c #D95252",
"*. c #DC5653",
"=. c #D75857",
"-. c #DE5F59",
";. c #D36462",
":. c #DD6F66",
">. c #DF786D",
",. c #C17776",
"<. c #CD7674",
"1. c #E17B6E",
"2. c #5E8154",
"3. c #6B8142",
"4. c #718844",
"5. c #7D9747",
"6. c #618756",
"7. c #678F59",
"8. c #679059",
"9. c #69925A",
"0. c #6D975C",
"q. c #739F60",
"w. c #648C72",
"e. c #679175",
"r. c #73A060",
"t. c #77A562",
"y. c #79A863",
"u. c #8A894C",
"i. c #8E8C4D",
"p. c #888756",
"a. c #959250",
"s. c #9D9B51",
"d. c #97945A",
"f. c #A19F53",
"g. c #86A049",
"h. c #8AA54A",
"j. c #93AF4C",
"k. c #98B64D",
"l. c #9BB94E",
"z. c #A4A153",
"x. c #AAA656",
"c. c #B5B058",
"v. c #B8B459",
"b. c #BCB75A",
"n. c #BFBA5B",
"m. c #96887D",
"M. c #A49F67",
"N. c #C9827F",
"B. c #E38474",
"V. c #E48475",
"C. c #9C7D83",
"Z. c #938989",
"A. c #9C9388",
"S. c #9C9290",
"D. c #A08388",
"F. c #A78C8D",
"G. c #AA9180",
"H. c #AC9595",
"J. c #AA9E98",
"K. c #B89593",
"L. c #B3AA94",
"P. c #B5B891",
"I. c #B2A4A0",
"U. c #BCADA7",
"Y. c #CB8C86",
"T. c #D0988E",
"R. c #D8998B",
"E. c #DB9C8B",
"W. c #C49590",
"Q. c #C0A99C",
"!. c #D1A295",
"~. c #D7AA94",
"^. c #DEAD95",
"/. c #E9AA90",
"(. c #C2B5A1",
"). c #C6B7AA",
"_. c #C9BAAC",
"`. c #CCBDAD",
"'. c #CFC0AE",
"]. c #DED1A5",
"[. c #DDCEB2",
"{. c #E4D5B5",
"}. c #E7D8B5",
"|. c #EBDCB7",
" X c #EEDFB8",
".X c #F1E2B9",
/* pixels */
"n.l.l.l.l.l.l.l.l.l.l.l.n.l.l.l.l.l.l.l.l.l.l.l.n.n.n.n.n.l.l.l.",
"l.l.l.l.l.y.y.y.y.l.l.l.l.l.n.n.l.l.l.l.l.l.l.l.n.l.l.l.l.l.l.l.",
"y.y.y.y.y.y.y.y.y.y.l.l.n.n.n.n.n.l.l.l.l.l.l.l.l.l.y.y.l.l.l.y.",
"y.y.y.y.y.y.y.y.y.y.n.n.n.n.n.n.n.n.n.n.n.y.y.l.l.y.y.y.y.l.l.l.",
"l.l.y.y.y.y.y.y.y.y.y.y.n.n.n.n.n.n.n.n.y.y.y.y.y.y.l.l.y.y.l.l.",
"l.l.l.y.y.l.l.j.l l l C y.y.n.n.n.y.y.y.y.l.l.y.y.l.l.l.l.y.y.l.",
"l.l.l.y.l.l.0   x j 5 X q l.l.l.l.l.l.l.l.l.l.l.l.l.l.l.l.l.l.l.",
"l.l.l.l.l.r   - (.=.@.Y   t l.l.e.e.l.l.y.y.l.l.l.l.l.y.y.y.y.l.",
"l.e.e.e.L   % _ R.&.E.>.5 2 j.e.e.e.e.y.y.y.y.l.y.y.y.y.y.y.y.y.",
"e.e.e.e.= # Q -.*.@.N.^.W   i e.e.n.e.e.y.y.y.y.y.y.y.y.y.y.y.y.",
"y.n.n.e.  E / Q.!.&.[ ..C.< = e.n.n.n.e.e.n.y.y.y.l.l.y.l.l.l.y.",
"l.n.n.n.3 X ) ( | ~ ! D.H.a = n.n.n.n.x.x.x.n.y.y.l.l.l.l.l.l.l.",
"n.n.n.n.x.;   , u u u u u   P n.n.h.G       e a.n.n.l.l.l.l.l.l.",
"y.n.n.y.y.r.V   : c c $ + V c.c.r *   4 4 4 X @ x.n.n.l.l.l.l.l.",
"y.y.y.y.y.9.v $ S.).[.1 v 0.y.l   > T @.*./.G.  G n.l.l.l.l.l.y.",
"l.l.l.l.l.6.D z U P.I k D 7.8 % R 1.V.@.&.W.{.m..   6.l.l.l.l.l.",
"l.l.y.y.y.r.F D 4.4.D 2.9.l   R B.}._.@.@.=.:.X.d   O 4.l.l.l.l.",
"y.y.y.y.y.y.r.g.g.g.g.t.l   s [ 1.Y.;.@.@.@.@.` B g   q l.l.l.l.",
"l.l.l.l.l.l.l.l.l.l.l.y.  & N ^ ' +.@.*.-.%.$.] ' ! d   t l.l.l.",
"l.l.l.l.l.l.l.l.l.l.l.y.  m ` @.#.` ` T.|.~.] @.<. .m   q l.l.l.",
"l.l.l.l.l.l.l.l.l.l.l.l.  f ! K.N.} B H.F.{ #.,.U.O.f   P n.n.l.",
"l.l.l.l.l.l.l.l.l.l.l.l.0 . h C.U.| B B B B B o.O.n     n.n.n.n.",
"l.l.l.l.l.l.l.l.l.l.l.l.4.6 . < M m m m m m m m f . O D y.y.y.y.",
"y.l.l.l.l.l.l.l.l.l.l.l.y.q.A O                   l D y.y.y.y.y.",
"y.y.l.l.l.l.l.l.l.l.l.l.l.k.5.4.9 : Z.U.`.'.J.  Z 7.y.y.l.l.l.y.",
"l.l.l.l.e.e.e.e.l.l.l.e.e.w.S S w p I._. X.XL.o K D 8.l.l.l.l.l.",
"l.l.e.e.e.e.e.e.e.l.e.e.e.w.S S S 7 b A..X].J H 4.D 6.l.l.l.l.l.",
"l.e.e.e.n.n.e.e.e.e.e.e.n.b.f.i.u.3.y p.M.d.u.u.u.i.r.y.l.l.l.l.",
"e.e.e.n.n.n.n.n.n.e.e.n.n.n.n.v.z.s.u.u.u.u.s.z.z.c.n.l.l.l.l.l.",
"n.e.e.e.n.n.n.n.n.n.n.n.n.n.n.n.n.n.v.v.v.v.b.n.n.n.n.n.l.n.n.n.",
"n.n.n.e.n.n.n.n.n.l.n.n.n.n.n.n.n.n.n.n.n.n.n.n.n.n.n.n.l.n.l.n.",
"n.n.n.n.n.n.n.l.l.l.l.l.n.n.y.y.y.n.n.n.n.l.l.n.n.n.n.n.n.n.l.l."
};
