/* XPM */
static char *_8d295ccb2394fed86c7821322ac2faakjBAWKu3pgPIaDEO[] = {
/* columns rows colors chars-per-pixel */
"32 32 171 2 ",
"   c #161C2E",
".  c #1A1F2F",
"X  c #222332",
"o  c #2A2B35",
"O  c #2D2E38",
"+  c #312B37",
"@  c #2D3237",
"#  c #34353B",
"$  c #39353C",
"%  c #36383A",
"&  c #3B3E3F",
"*  c #453B3D",
"=  c #3B483C",
"-  c #46493E",
";  c #45563D",
":  c #4B543B",
">  c #55573E",
",  c #56583E",
"<  c #624A3C",
"1  c #50613C",
"2  c #58673F",
"3  c #586A3E",
"4  c #1E2F40",
"5  c #232B44",
"6  c #253040",
"7  c #283647",
"8  c #333A41",
"9  c #3D3A40",
"0  c #2C3855",
"q  c #2D3F5A",
"w  c #463D42",
"e  c #403048",
"r  c #483A4F",
"t  c #573747",
"y  c #5B3344",
"u  c #783946",
"i  c #743A4A",
"p  c #374447",
"a  c #3C4D45",
"s  c #344A5D",
"d  c #32545F",
"f  c #364263",
"g  c #314D62",
"h  c #3A476A",
"j  c #2D5868",
"k  c #3D5760",
"l  c #305D67",
"z  c #34626A",
"x  c #366878",
"c  c #37717A",
"v  c #464746",
"b  c #4C4443",
"n  c #4A4B45",
"m  c #4C4D4D",
"M  c #524947",
"N  c #5D4A42",
"B  c #534C4A",
"V  c #4D5541",
"C  c #455845",
"Z  c #545644",
"A  c #5D554E",
"S  c #5D5A4A",
"D  c #445E55",
"F  c #4C5D54",
"G  c #585651",
"H  c #665043",
"J  c #675949",
"K  c #665F4F",
"L  c #79594F",
"P  c #615751",
"I  c #665C51",
"U  c #566542",
"Y  c #556F50",
"T  c #6D6641",
"R  c #706F47",
"E  c #706C4E",
"W  c #697444",
"Q  c #787946",
"!  c #7D7C49",
"~  c #686256",
"^  c #726854",
"/  c #756958",
"(  c #7A6D5D",
")  c #7C7454",
"_  c #787758",
"`  c #587B67",
"'  c #4A6476",
"]  c #4A7778",
"[  c #527372",
"{  c #7C7462",
"}  c #8F3D46",
"|  c #97404A",
" . c #B4464D",
".. c #8D694E",
"X. c #946044",
"o. c #9A7D4D",
"O. c #837B53",
"+. c #81745C",
"@. c #8A765B",
"#. c #987050",
"$. c #A17956",
"%. c #877760",
"&. c #897A61",
"*. c #DB4C4C",
"=. c #3D807F",
"-. c #728944",
";. c #7A9246",
":. c #608556",
">. c #678B5A",
",. c #6C965C",
"<. c #5D836C",
"1. c #60886F",
"2. c #739F60",
"3. c #668F74",
"4. c #679175",
"5. c #79A863",
"6. c #88874A",
"7. c #8B894C",
"8. c #918F4E",
"9. c #829B48",
"0. c #94924F",
"q. c #8B855C",
"w. c #948B59",
"e. c #978F58",
"r. c #9E9B52",
"t. c #A09C54",
"y. c #A49B5B",
"u. c #8AA54A",
"i. c #93AF4C",
"p. c #9BB94E",
"a. c #A4A254",
"s. c #A9A655",
"d. c #ACA955",
"f. c #BDB652",
"g. c #BFBF52",
"h. c #B5B059",
"j. c #BBB65A",
"k. c #BFBA5B",
"l. c #8A816B",
"z. c #928363",
"x. c #9C8F62",
"c. c #9F9262",
"v. c #8F8B74",
"b. c #AA9969",
"n. c #ABA060",
"m. c #B3A467",
"M. c #BBAC69",
"N. c #BFB167",
"B. c #C4BF57",
"V. c #C4BF58",
"C. c #C0B464",
"Z. c #C8BD64",
"A. c #C7C357",
"S. c #D4D059",
"D. c #DAD25F",
"F. c #DED95D",
"G. c #E1DC5C",
"H. c #E4E05B",
"J. c #CDC363",
"K. c #D4CC60",
"L. c #3D6E87",
"P. c #3B7A81",
"I. c #3D828B",
"U. c #3F8994",
"Y. c #3F8899",
"T. c #40878F",
"R. c #418989",
"E. c #408990",
"W. c #439097",
"Q. c #599094",
"!. c #4CA5A2",
/* pixels */
"k.p.p.p.p.p.p.p.p.p.p.p.k.p.p.p.p.p.p.p.p.p.p.p.k.k.k.k.k.p.p.p.",
"p.p.p.p.p.5.5.5.5.p.p.p.p.p.k.k.p.p.p.p.p.p.p.p.k.p.p.p.p.p.p.p.",
"5.5.5.5.5.5.5.5.5.5.p.p.k.k.k.k.k.i.i.-.i.p.p.p.p.p.5.5.p.p.p.5.",
"5.5.5.5.5.5.5.5.5.5.k.k.k.k.! s.s.^ E v.h.5.5.p.p.5.5.5.5.p.p.p.",
"p.p.5.5.5.5.5.5.5.5.5.5.k.Q - Z @.+.l.q.5.5.5.5.5.5.p.p.5.5.p.p.",
"p.p.p.5.5.p.p.p.5.5.5.5.5.>.l.o $.O ( :.5.p.p.5.5.p.p.p.p.5.5.p.",
"p.p.p.5.p.p.p.p.p.p.p.p.u.p k * $.M ] ; p.p.p.p.p.p.p.p.p.p.p.p.",
"p.p.p.p.p.p.p.p.4.4.4.` 6 R.!.=.[ P.W.4 a ,.p.p.p.p.p.5.5.5.5.p.",
"p.4.4.4.p.p.k.k.k.4.4.p 0 7 z R.!.E.q 5 h 7 5.p.5.5.5.5.5.5.5.5.",
"4.4.4.4.4.k.k.k.k.k.r.& f e g L.Q.' r t h 0 5.5.5.5.5.5.5.5.5.5.",
"5.k.k.4.4.k.k.k.k.k.0.f L.s u  .*.*.} g 0 7.5.5.5.p.p.5.p.p.p.5.",
"p.k.k.k.k.k.k.k.5.5.,.8 x U.x l j z I.Y.q 7.k.5.5.p.p.p.p.p.p.p.",
"k.k.k.k.k.k.k.Y >.5.5.s.V d c T.I.c j F t.k.k.k.7.! p.p.p.p.p.p.",
"5.k.k.5.5.5.5.Y { C Z W C a #   w . n : R ! > S ~ s.k.p.p.p.p.p.",
"5.5.5.5.5.5.Z N o S f.D.Z.+.O   L X B e.D.D.! , * H W p.p.p.p.5.",
"p.p.p.p.p.5.= H $ @.K.K.J.y.O.B * $ z.K.G.Z.x.O.* N :.p.p.p.p.p.",
"p.p.5.5.5.5.2.n % w z.b.M.7.y o.8.t.N.M.M.m.I / B C 5.p.p.p.p.p.",
"5.5.5.5.5.5.2.3 i.1 @ 9 ) T i X.A.V.J.n.A P n 6.r.r.5.p.p.p.p.p.",
"p.p.p.p.p.p.p.p.p.p.u.9 C.B.> R K.S.A.s.A 3 h.k.k.k.k.p.p.p.p.p.",
"p.p.p.p.p.p.p.p.p.p.; ^ Z.K.D.F.K.f.u y b ! k.k.k.k.k.k.p.p.p.p.",
"p.p.p.p.p.p.p.p.p.u.O &.M.K.K.H.g.< i | + - k.5.5.5.k.k.k.k.k.p.",
"p.p.p.p.p.p.p.p.p.u.B K Z.F.N.m.) 7.t t ^ b 5.5.5.5.5.k.k.k.k.k.",
"p.p.p.p.p.p.p.p.p.p.V ( b.b.w.# o q.c.x.%.= 5.5.5.5.5.5.5.5.5.5.",
"5.p.p.p.p.p.p.p.p.p.9.= & 9 G m G I 9 n 2 i.5.5.5.5.5.5.5.5.5.5.",
"5.5.p.p.p.p.p.p.p.p.p.p.1   ~ M P n p ; p.p.p.p.5.5.5.5.p.p.p.5.",
"p.p.p.p.4.4.4.4.p.p.p.4.<.F F v b u.;.p.p.k.k.p.p.5.5.p.p.p.p.p.",
"p.p.4.4.4.4.4.4.4.p.4.4.3.1.D 8 ..- -.i.k.k.k.k.p.5.5.p.p.p.p.p.",
"p.4.4.4.k.k.4.4.4.4.4.4.r.7._ m #.B U 7.s.k.k.k.k.k.5.5.p.p.p.p.",
"4.4.4.k.k.k.k.k.k.4.4.k.7.7.! / J b ! 7.0.k.k.k.k.k.k.p.p.p.p.p.",
"k.4.4.4.k.k.k.k.k.k.k.k.d.r.7.7.7.7.8.a.s.k.k.k.k.k.k.k.p.k.k.k.",
"k.k.k.4.k.k.k.k.k.p.k.k.k.j.d.d.j.j.k.k.k.k.k.k.k.k.k.k.p.k.p.k.",
"k.k.k.k.k.k.k.p.p.p.p.p.k.k.5.5.5.k.k.k.k.p.p.k.k.k.k.k.k.k.p.p."
};
