/* XPM */
static char *result[] = {
/* columns rows colors chars-per-pixel */
"32 32 170 2 ",
"   c #161C2E",
".  c #1D2130",
"X  c #23292F",
"o  c #222531",
"O  c #232B36",
"+  c #2D2B35",
"@  c #312E36",
"#  c #342E39",
"$  c #2F3232",
"%  c #24303A",
"&  c #2E3F3B",
"*  c #323732",
"=  c #353239",
"-  c #3B3439",
";  c #393B39",
":  c #443E37",
">  c #40373C",
",  c #433B3C",
"<  c #4A3D3E",
"1  c #2F403B",
"2  c #3F4C38",
"3  c #4E423E",
"4  c #484B39",
"5  c #52443D",
"6  c #5B4F3D",
"7  c #4A543A",
"8  c #585E35",
"9  c #50523D",
"0  c #66573E",
"q  c #67583E",
"w  c #4F603C",
"e  c #586A3E",
"r  c #6A673A",
"t  c #756A3E",
"y  c #727938",
"u  c #384441",
"i  c #3A5141",
"p  c #4E4040",
"a  c #554442",
"s  c #5A4742",
"d  c #544B41",
"f  c #5B4A43",
"g  c #465548",
"h  c #58524A",
"j  c #435D55",
"k  c #634D46",
"l  c #644E48",
"z  c #645142",
"x  c #6D5544",
"c  c #645348",
"v  c #6C534A",
"b  c #6C5C48",
"n  c #745A46",
"m  c #795D46",
"M  c #71554C",
"N  c #75594C",
"B  c #7A5C4D",
"V  c #7D5D51",
"C  c #536C4C",
"Z  c #52714E",
"A  c #476358",
"S  c #4D6C5E",
"D  c #567650",
"F  c #5A7C52",
"G  c #606A42",
"H  c #6D6E44",
"J  c #74634C",
"K  c #78624B",
"L  c #7B694F",
"P  c #657A41",
"I  c #7D7D48",
"U  c #7F6C50",
"Y  c #505562",
"T  c #83624C",
"R  c #88664E",
"E  c #8D6A4C",
"W  c #926D4E",
"Q  c #897246",
"!  c #95704E",
"~  c #866353",
"^  c #8C6852",
"/  c #956E51",
"(  c #847353",
")  c #8C7554",
"_  c #947552",
"`  c #9D7354",
"'  c #A27752",
"]  c #A57A55",
"[  c #A97C54",
"{  c #A37D59",
"}  c #7F8639",
"|  c #6C8242",
" . c #728944",
".. c #7F834F",
"X. c #7A9246",
"o. c #7F9748",
"O. c #608455",
"+. c #668D59",
"@. c #6A945B",
"#. c #6F9A5D",
"$. c #5F866D",
"%. c #739F60",
"&. c #679175",
"*. c #79A561",
"=. c #79A863",
"-. c #83833C",
";. c #9AA13C",
":. c #A6AD3D",
">. c #B3B93F",
",. c #C1C83F",
"<. c #88874B",
"1. c #8A894C",
"2. c #918F4E",
"3. c #95934F",
"4. c #8B8E55",
"5. c #999751",
"6. c #B7944F",
"7. c #B6984E",
"8. c #AB8257",
"9. c #A18259",
"0. c #AA8D5E",
"q. c #B48355",
"w. c #B38B5B",
"e. c #BC8E5A",
"r. c #BC9157",
"t. c #8BA64A",
"y. c #8EAA4B",
"u. c #94AB4D",
"i. c #93B04C",
"p. c #99B64D",
"a. c #9BB94E",
"s. c #AEA842",
"d. c #A9A655",
"f. c #ADAA56",
"g. c #B5B158",
"h. c #BAB559",
"j. c #BFBA5B",
"k. c #909176",
"l. c #A98E60",
"z. c #B18262",
"x. c #B08C61",
"c. c #B89561",
"v. c #BC9B64",
"b. c #C59A55",
"n. c #C1945F",
"m. c #CBB44E",
"M. c #CEA554",
"N. c #D1AE52",
"B. c #C79C62",
"V. c #CCA567",
"C. c #D0A869",
"Z. c #DAB570",
"A. c #C9C545",
"S. c #D8CA4A",
"D. c #D5D94E",
"F. c #E1D949",
"G. c #E4E546",
"H. c #E9F044",
"J. c #EEF372",
"K. c #B6B8BE",
"L. c #BCC185",
"P. c #F2F796",
"I. c #F7F9B9",
"U. c #D0D2C0",
"Y. c #E9DDCA",
"T. c #F8FAC4",
"R. c #F9FBD0",
"E. c #F5EFEA",
"W. c #FDFDE8",
"Q. c white",
/* pixels */
"j.a.a.a.a.a.a.a.a.a.a.a.m.a.a.a.a.a.a.a.a.a.a.a.j.j.m.j.j.a.a.a.",
"a.a.a.a.a.=.=.=.=.a.a.a.a.a.j.j.a.a.a.a.a.a.a.a.j.a.a.a.a.a.a.a.",
"=.=.=.=.=.=.=.=.=.=.a.a.j.d.3.3.3.X.t.p.a.a.a.e G t.=.=.a.a.a.=.",
"=.=.=.=.=.=.=.=.+.i 4 o = f v B m k 5 = + 1 2 ; L ( C =.=.a.a.a.",
"a.a.=.=.=.=.F & < N [ ! T ] / [ ] ` [ R E [ < T e.{ 9.t.=.=.a.a.",
"a.a.a.=.%.2 6 ` ` ^ a B l ~ l ~ ~ v R v B < < [ [ b d t.a.=.=.a.",
"a.a.a.#.; T R ^ s ~ B ~ V ~ N ~ ~ ~ ~ o * + v ' [ 0.d 2 i.a.a.a.",
"a.a.a.7 T ! < ~ N ~ V ~ ~ ~ N ~ ~ ~ ~ ; ,.;.4 [ T d m L g =.=.a.",
"a.&.j m R a N ~ V ~ V ~ ~ ~ N ~ ~ V o @ m.F.A.; L @ f T n D =.=.",
"&.&.u / a a V ~ ~ ~ V ~ N ~ l v v > Y K.h s.6.0 o f a s / u =.=.",
"*.g.z n = a V ~ V ~ v ~ 3 > o 8 } y % K.U.* $ d p N a = B 0 t.=.",
"a.d.k ' + a V ~ v V s V . o ,.P.Q.R.D.r r y . L l N a @ ' k t.a.",
"j.3.3 _ # , v ~ p l k M X ;.H.I.E.E.J.A.+   ( c V l , - W 5 1.a.",
"*.I   W B # p < l p > . r >.-.k.z.Y.J.G.M.+ L , > > # B W   } a.",
"#.Z = c ] , = f @ 7 ;.7.6.o q r w.m.H.G.M.: + V V p , [ x % | #.",
"i.y , - c c.f + -.W.I.G.7.  q S.G.G.H.S.M.Q k ~ l d v.J = ; | X.",
" .P < , > x.0.U L.Q.T.m.F.8 X o -.F.G.N.b.n k > K 0.l.- , < P X.",
"F C < k ` ; c.C.b ..:.) Q X >.t 6 b.q.E T 3 [ Z.Z.e., ` k < P  .",
"| P p T ` m B s Z.Z.l.l.l.. * X * : - l.0.0.Z.Z., n m ` T p P  .",
" .P < ~ ` E ' ) K ` v.l.r.C.C.C.C.C.C.C.C.V.5 q.L _ E ` ~ a P  .",
" .P p N ` [ ] ) ` q.E e.[ 8.b b J ) w.5 x n 9.q.) ] [ ' M p I  .",
" .P p l { ] [ 0.` q.! V.` q.n.q.c.Z.q._ e.[ 9.q.x.[ [ ' l p I <.",
"X.| ; a ' ` q.9.l.q.V.n.` ! C.q.9.Z.q.x q.] 9.q.{ q.W ` a & D F ",
"@. .g . B n q.E x.q.B.e.` _ C.q.{ Z.q.w.w.[ 9.` ) q.n M . u F O.",
"+.F  .} . , { h B.[ w.e.E 9.C.q.9.C.[ 9.e.q.8.` _ R x ; 7  . .@.",
"t. . . .A i ` W B.! _ e.K 9.V.q.q.q.` B.e.q.e.` s & O w  .|  .t.",
"a.i.S S S S u # ` q.E q.B 9.B.[ q.q.` B.e.q.q.' 2 Z F  . . .o.p.",
"a.$.S S 1.1.S j % % x E B ! e.` E q.` K ! N 9 7 H 1.F F  .X.y.a.",
"&.&.&.5.5.4.<.2.<...9 9 9 3 z p ; k 6 9 g 9 1.1.<.3.4.X.t.a.a.a.",
"j.&.&.&.m.f.j.g.1.1.1.1.1.H H H H H H 1.1.1.1.h.j.g.d.h.a.m.j.j.",
"j.j.j.&.j.j.j.j.j.u.h.<.1.1.1.1.1.1.1.1.f.d.g.j.j.j.j.j.a.j.a.j.",
"j.j.j.j.j.j.j.a.a.a.a.a.h.h.4.*.*.f.h.h.j.a.a.j.j.j.j.j.j.j.a.a."
};
