/* XPM */
static char *result[] = {
/* columns rows colors chars-per-pixel */
"32 32 194 2 ",
"   c #161C2E",
".  c #1B2332",
"X  c #1F2130",
"o  c #1F2230",
"O  c #23292F",
"+  c #202230",
"@  c #212430",
"#  c #212931",
"$  c #262F32",
"%  c #202A37",
"&  c #292833",
"*  c #2A2F33",
"=  c #2D2D32",
"-  c #282D34",
";  c #242A3B",
":  c #273437",
">  c #2F3231",
",  c #2B3034",
"<  c #2C3734",
"1  c #2E3F3B",
"2  c #303731",
"3  c #313731",
"4  c #333434",
"5  c #383437",
"6  c #443E38",
"7  c #354035",
"8  c #3D4136",
"9  c #384537",
"0  c #35473E",
"q  c #3E4B38",
"w  c #3F4D38",
"e  c #414A35",
"r  c #404338",
"t  c #50473A",
"y  c #57453F",
"u  c #5B4F3D",
"i  c #4A5134",
"p  c #4B5134",
"a  c #495437",
"s  c #4E5F3C",
"d  c #585E34",
"f  c #585E35",
"g  c #55563E",
"h  c #66573E",
"j  c #66583E",
"k  c #67583E",
"l  c #586A3E",
"z  c #5A6D3F",
"x  c #656C36",
"c  c #6A613C",
"v  c #6D6D3A",
"b  c #756A3E",
"n  c #766A3F",
"m  c #727937",
"M  c #727938",
"N  c #344748",
"B  c #3B5041",
"V  c #5C4A40",
"C  c #56534F",
"Z  c #604A42",
"A  c #614B42",
"S  c #614B43",
"D  c #6C5345",
"F  c #705E41",
"G  c #725F42",
"H  c #765948",
"J  c #7D5C4A",
"K  c #476248",
"L  c #54744F",
"P  c #4E6D5F",
"I  c #597C52",
"U  c #607440",
"Y  c #667B42",
"T  c #697E42",
"R  c #7F7F4A",
"E  c #505562",
"W  c #527363",
"Q  c #537463",
"!  c #86624D",
"~  c #87634D",
"^  c #897145",
"/  c #897146",
"(  c #807F4B",
")  c #947A48",
"_  c #A27455",
"`  c #A67E51",
"'  c #AC7A58",
"]  c #7F8639",
"[  c #6B8143",
"{  c #718845",
"}  c #738B46",
"|  c #748B46",
" . c #799146",
".. c #608556",
"X. c #628757",
"o. c #6B945C",
"O. c #6C965C",
"+. c #729F5F",
"@. c #5D826C",
"#. c #628A70",
"$. c #679175",
"%. c #73A060",
"&. c #79A863",
"*. c #808639",
"=. c #85803E",
"-. c #989C3D",
";. c #99A03C",
":. c #9AA03C",
">. c #9AA13C",
",. c #B2B63F",
"<. c #B4BB3E",
"1. c #C1C83F",
"2. c #819A48",
"3. c #819B49",
"4. c #839D49",
"5. c #9F9C52",
"6. c #A7864D",
"7. c #B7944F",
"8. c #B6984E",
"9. c #AA8351",
"0. c #AE8A51",
"q. c #AE8A52",
"w. c #B28257",
"e. c #B48457",
"r. c #B48557",
"t. c #B08C50",
"y. c #B28F50",
"u. c #B88A56",
"i. c #A09C53",
"p. c #B79054",
"a. c #B99252",
"s. c #BE9256",
"d. c #BB9853",
"f. c #88A44A",
"g. c #8BA64A",
"h. c #8BA64B",
"j. c #8BA74B",
"k. c #93AF4C",
"l. c #96B34D",
"z. c #99B64D",
"x. c #9BB94E",
"c. c #AEA842",
"v. c #AAA655",
"b. c #B4B058",
"n. c #B5B059",
"m. c #BFBA5B",
"M. c #909176",
"N. c #B18262",
"B. c #C19455",
"V. c #C59A55",
"C. c #C99F55",
"Z. c #C6AE4F",
"A. c #CBB34D",
"S. c #CAB54E",
"D. c #C9BE49",
"F. c #D6BC4F",
"G. c #CEA554",
"H. c #D1AE52",
"J. c #C2C940",
"K. c #CFC149",
"L. c #D1C648",
"P. c #D2C44C",
"I. c #DAC64D",
"U. c #DCCE4B",
"Y. c #DDCF4B",
"T. c #DBCA4C",
"R. c #D8DB44",
"E. c #D1D758",
"W. c #E0D849",
"Q. c #E1D949",
"!. c #E2DD48",
"~. c #DCE343",
"^. c #E2E146",
"/. c #E2E246",
"(. c #E5E646",
"). c #E5E945",
"_. c #E9F044",
"`. c #EAED5D",
"'. c #EDF367",
"]. c #EEF372",
"[. c #B6B8BD",
"{. c #B6B8BE",
"}. c #F1F68A",
"|. c #F2F796",
" X c #F7F9B8",
".X c #F7F9B9",
"XX c #D0D2C0",
"oX c #E9DDCA",
"OX c #F8FAC4",
"+X c #F9FBD0",
"@X c #F4EEEA",
"#X c #F5EFEA",
"$X c #FDFDE8",
"%X c white",
/* pixels */
"m.x.x.x.x.x.x.x.x.x.x.x.m.x.x.x.x.x.x.x.x.x.x.x.m.m.m.m.m.x.x.x.",
"x.x.x.x.x.&.&.&.&.x.x.x.x.x.m.m.x.x.x.x.x.x.x.x.m.x.x.x.x.x.x.x.",
"&.&.&.&.&.&.&.&.&.&.x.x.m.m.m.m.m.x.x.x.x.x.x.x.x.x.&.&.x.x.x.&.",
"&.&.&.&.&.&.&.&.&.&.m.m.m.m.m.m.m.m.m.m.m.&.&.x.x.&.&.&.&.x.x.x.",
"x.x.&.&.&.&.&.&.&.&.&.&.m.m.m.m.m.m.m.m.&.&.&.&.&.&.x.x.&.&.x.x.",
"x.x.x.&.&.x.x.x.&.&.&.&.&.&.m.m.m.&.&.&.&.x.x.&.&.x.x.x.x.&.&.x.",
"x.x.x.&.x.x.x.x.x.x.x.x.x.x.x.x.x.x.x.$ 3 w g.x.x.x.x.x.x.x.x.x.",
"x.x.x.x.x.x.x.x.$.$.$.$.$.x.x.x.$.$.x.e J.:.a k.x.x.x.&.&.&.&.x.",
"x.$.$.$.x.x.m.m.m.$.$.$.$.$.x.$.$.#.% 2 A.Q.L.8 O.&.&.&.&.&.&.&.",
"$.$.$.$.$.m.m.m.m.m.m.m.$.$.@.W W g E [.C c.7.h K &.&.&.&.&.&.&.",
"&.m.m.$.$.m.m.m.m.m.m.m.b.N . f ] m ; {.XX> - L %.x.x.&.x.x.x.&.",
"x.m.m.m.m.m.m.m.&.&.&.m.r O 1.|.%X+XE.c x M , &.&.x.x.x.x.x.x.x.",
"m.m.m.m.m.m.m.&.&.&.&.5.O >._..X@X#X].K.=   ( m.m.m.x.x.x.x.x.x.",
"&.m.m.&.&.&.&.&.+.K B + v <.] M.N.oX].(.G.= i.m.m.m.m.x.x.x.x.x.",
"&.&.&.&.&.&.&.+.1 i >.8.a.@ j c 0.S._.(.G.6 T m.m.m.x.x.x.x.x.&.",
"x.x.x.x.x.&.&.0 *.$X X(.7.  k T.)./._.U.G.^ L &.&.&.&.x.x.x.x.x.",
"x.x.&.&.&.&.I p }.%XOXZ.R.d O @ =.W.(.H.s.H L &.&.&.&.x.x.x.x.x.",
"&.&.&.&.&.&.K n `.'._.d.q.O ,.b u V.r.w.' y L m.m.m.&.x.x.x.x.x.",
"x.x.x.x.x.x.l / !._._.^.' ~ G O -.Y.u.' Z   n.m.m.m.m.x.x.x.x.x.",
"x.x.x.x.x.x.l / I._._.S.p.P.D.;.~.(.B._ A o v.m.m.m.m.m.x.x.x.x.",
"x.x.x.x.x.x.k.t G.I._.).)._._._._.W.B.' ' & R &.&.&.m.m.m.m.m.x.",
"x.x.x.x.x.x.x.7 ) G.G.F.W.(.(.(.I.G.e.' !   o.&.&.&.&.m.m.m.m.m.",
"x.x.x.x.x.x.h.z 4 6.G.G.G.G.G.G.C.u.' J X : X.&.&.&.&.&.&.&.&.&.",
"&.x.x.x.x.x.f.{ U * V F 9.y.t.` D S 5 # 9 Y ..&.&.&.&.&.&.&.&.&.",
"&.&.x.x.x.x.x.3.} [ s q < < < < q s z { {  .l.x.&.&.&.&.x.x.x.&.",
"x.x.x.x.$.$.$.$.z.j.2.Q P P P P { | 2.4.l.m.m.x.x.&.&.x.x.x.x.x.",
"x.x.$.$.$.$.$.$.$.x.$.$.$.$.$.$.$.x.x.x.m.m.m.m.x.&.&.x.x.x.x.x.",
"x.$.$.$.m.m.$.$.$.$.$.$.m.m.m.m.m.x.x.m.m.m.m.m.m.m.&.&.x.x.x.x.",
"$.$.$.m.m.m.m.m.m.$.$.m.m.m.m.m.m.m.m.m.m.m.m.m.m.m.m.x.x.x.x.x.",
"m.$.$.$.m.m.m.m.m.m.m.m.m.m.m.m.m.m.m.m.m.m.m.m.m.m.m.m.x.m.m.m.",
"m.m.m.$.m.m.m.m.m.x.m.m.m.m.m.m.m.m.m.m.m.m.m.m.m.m.m.m.x.m.x.m.",
"m.m.m.m.m.m.m.x.x.x.x.x.m.m.&.&.&.m.m.m.m.x.x.m.m.m.m.m.m.m.x.x."
};
