/* XPM */
static char *_6f031b14c9f4567c376695b33e8b5bfo6B3gc3J1fJipQWg[] = {
/* columns rows colors chars-per-pixel */
"32 32 204 2 ",
"   c #161C2E",
".  c #1C232F",
"X  c #1E2232",
"o  c #1E2630",
"O  c #232633",
"+  c #222A30",
"@  c #262A32",
"#  c #262F32",
"$  c #202A37",
"%  c #262835",
"&  c #242F35",
"*  c #242A3B",
"=  c #2E2E39",
"-  c #273032",
";  c #2E3833",
":  c #2F3934",
">  c #293638",
",  c #363936",
"<  c #343F35",
"1  c #36343D",
"2  c #3C3B3F",
"3  c #374336",
"4  c #3A4636",
"5  c #404339",
"6  c #47563A",
"7  c #53633B",
"8  c #50603C",
"9  c #586A3E",
"0  c #5F703E",
"q  c #3F3C41",
"w  c #3E3F44",
"e  c #333848",
"r  c #463F45",
"t  c #394F4D",
"y  c #3F5542",
"u  c #494546",
"i  c #4C4D4D",
"p  c #56504B",
"a  c #414755",
"s  c #4D4F53",
"d  c #4E5157",
"f  c #425B53",
"g  c #595954",
"h  c #6C5E56",
"j  c #6F5D58",
"k  c #476248",
"l  c #4D6B4C",
"z  c #54734F",
"x  c #55754E",
"c  c #496559",
"v  c #5A7B50",
"b  c #5A7D52",
"n  c #51705F",
"m  c #636341",
"M  c #6A6B44",
"N  c #6B7F41",
"B  c #757548",
"V  c #7F7F4A",
"C  c #66635A",
"Z  c #67655C",
"A  c #7B675E",
"S  c #7C6E5D",
"D  c #505562",
"F  c #577865",
"G  c #597C67",
"H  c #5A7E68",
"J  c #69686E",
"K  c #747265",
"L  c #6D717C",
"P  c #806B5F",
"I  c #876F64",
"U  c #857062",
"Y  c #8F7567",
"T  c #93796A",
"R  c #977B6B",
"E  c #987D6B",
"W  c #9B7F6D",
"Q  c #5E8152",
"!  c #778D43",
"~  c #799146",
"^  c #618654",
"/  c #648955",
"(  c #668E58",
")  c #689058",
"_  c #6C965C",
"`  c #729F5F",
"'  c #5C806A",
"]  c #5D826C",
"[  c #679175",
"{  c #78A662",
"}  c #79A863",
"|  c #8B894D",
" . c #918E4C",
".. c #809846",
"X. c #829B48",
"o. c #829C48",
"O. c #97944E",
"+. c #99964F",
"@. c #9F9B50",
"#. c #89A348",
"$. c #8BA649",
"%. c #8DA849",
"&. c #90AB4A",
"*. c #93AF4C",
"=. c #97B44D",
"-. c #9BB94E",
";. c #A8A453",
":. c #A9A655",
">. c #B3AF57",
",. c #B5B058",
"<. c #BAB559",
"1. c #BFBA5B",
"2. c #9C866C",
"3. c #A88E72",
"4. c #AB9373",
"5. c #AF9075",
"6. c #B19676",
"7. c #B19C79",
"8. c #B99979",
"9. c #BE9F7D",
"0. c #7B8089",
"q. c #7C8089",
"w. c #A09D8B",
"e. c #B8A183",
"r. c #B9B08C",
"t. c #999BA3",
"y. c #A7A9B0",
"u. c #B4B4B6",
"i. c #B6B8BD",
"p. c #CCAB82",
"a. c #CAAE82",
"s. c #D0AF83",
"d. c #CAB28B",
"f. c #CDB588",
"g. c #D0B084",
"h. c #D5B485",
"j. c #D2B388",
"k. c #DAB888",
"l. c #D8BA8F",
"z. c #D8BC8C",
"x. c #C7BE99",
"c. c #D0BD90",
"v. c #E3C18C",
"b. c #E4C38E",
"n. c #E5C792",
"m. c #E7CB95",
"M. c #E8CD97",
"N. c #E6C99A",
"B. c #E8CD98",
"V. c #E9D19B",
"C. c #EAD39D",
"Z. c #EAD59F",
"A. c #E1D3A1",
"S. c #E2D5A4",
"D. c #EBD7A1",
"F. c #EAD3A4",
"G. c #ECD9A3",
"H. c #EDDBA5",
"J. c #EDDDA7",
"K. c #EDDBA8",
"L. c #EEDDAE",
"P. c #EBD4B0",
"I. c #EDD9B7",
"U. c #EFE1AB",
"Y. c #EFE0B2",
"T. c #F0E3B0",
"R. c #F0E0B7",
"E. c #F1E5B5",
"W. c #F0E0B8",
"Q. c #F2E7BB",
"!. c #C5C6CB",
"~. c #F2E2C4",
"^. c #F2E4C6",
"/. c #F3E8C0",
"(. c #F4EBC5",
"). c #F5ECCA",
"_. c #F5EACF",
"`. c #F4E7D3",
"'. c #F5EBD1",
"]. c #F6EED0",
"[. c #F5E8D4",
"{. c #F7EFD5",
"}. c #F7EBDB",
"|. c #F7EFD8",
" X c #F7F0D5",
".X c #F8F2DA",
"XX c #F9F3DF",
"oX c #F9F4DF",
"OX c #E1E1E0",
"+X c #E2E2E5",
"@X c #F8EFE2",
"#X c #F9F3E0",
"$X c #F9F4E0",
"%X c #F9F2E4",
"&X c #FAF6E5",
"*X c #FBF7EA",
"=X c #FBF8EA",
"-X c #FCF9EF",
";X c #F1F1F2",
":X c #FBF7F0",
">X c #FCF9F2",
",X c #FDFBF4",
"<X c #FEFDFA",
"1X c white",
/* pixels */
"1.-.-.-.-.-.-.-.-.-.-.-.1.-.-.-.-.-.-.-.-.-.-.-.1.1.1.1.1.-.-.-.",
"-.-.-.-.-.} } } } -.-.-.-.-.1.1.-.-.-.-.-.-.-.-.1.-.-.-.-.-.-.-.",
"} } } } } } } } } } -.-.1.1.1.1.1.-.-.-.-.-.-.-.-.-.} } -.-.-.} ",
"} } } } } } } } } } 1.1.1.1.1.1.1.1.1.1.1.} } -.-.} } } } -.-.-.",
"-.-.} } } } } } } } } ` :.:.,.1.1.:.:.,.} } } } } } -.-.} } -.-.",
"-.-.-.} } -.-.-.} } l >     , M M o   > k -.-.} } -.-.-.-.} } -.",
"-.-.-.} -.*.~ 9 # #   e +Xq.a     a D     # # 8 X.-.-.-.-.-.-.-.",
"-.-.-.-.-.6         a +X1X1X+Xw.y.;X1XL         3 -.-.} } } } -.",
"-.[ [ [ o.o i $X1X&X(.1X1X1X:X}.1X1X1X|.n.1X;Xa   x } } } } } } ",
"[ [ [ ] t w A.1X1X1X-X<X,X>XN.[.1X1X<XN.n.1X1XOXe > } } } } } } ",
"} 1.1.$   u M.*X1X1X,XR.J.V.I._.-X&X/.M.H.1X1X Xg   N z o.-.-.} ",
"-.1.V * e u.I.F.].1X-XF.n.~.1X-X XU.].*X*X X-XK.z.p     - o.-.-.",
"1.,.5 D 1X1X1XP.#X1X1X1Xv.[.1X1X XE.-X1X1XoXU.G.a.2       ~ -.-.",
"} :.  D 1X1X1X^.%X1X1X,XD.K.=X/.T.Q.,X;X!.x.V.7.h     - $.*.-.-.",
"} _   s &X1XXXU.(.1X#X*XoX/./.oX(.H.W.D   Z K         - -.-.-.} ",
"-.-.9   g S.$X1X{.U.,X1X1X1X1X1X1X@Xv.  g U.i       L y.9 -.-.-.",
"-.-.k     c.$X1X>XM.>X1X1X`.1X1X1X@XB.  r.oXd   t.y.L i.: $.-.-.",
"} } b o   f.U.Z.C.n.|.oX'.M.oX.XD.C.U.U.=X1XD   0.L       ~ -.-.",
"-.-.*.# C n.Z.G.L.J.oX*XoXT.U.Q.*X*X).T.$X:XJ             ~ -.-.",
"-.-.9   S p.v.D.&X X<X1X1X&XD.=X1X1X1X(.Z.v.6.            ~ -.-.",
"-.-.N o O U s.9.l.N.L.E.E.F.b.N.L.T.Y.n.b.v.h.I %       B ,.1.-.",
"-.-.-.9   X r R g.v.b.d.e.j.v.v.v.m.n.6.k.v.k.j X   z | 1.1.1.1.",
"-.-.-.%.N +   r T 3.4.W U 4.2.E 8.s.5.Y A P q X   y ) { } } } } ",
"} -.&.~ ! 6     1 = X r       1 r r r 1         & x Q ( } } } } ",
"} } #.! ! ! 7 ;         4 4 4 4 4 4 4       . 4 v Q Q ^ -.-.-.} ",
"-.-.$.! n n n c < + 7 f n n n n ! ! ! 0 < @ m ! ! Q Q ..-.-.-.-.",
"-.-.[ H n n n n n ! n n n n n n n ! ! !  . . . .! Q / =.-.-.-.-.",
"-.[ [ [ <.@.F n n n n n  . . . . .! !  . . . .O.@.>.{ } -.-.-.-.",
"[ [ [ 1.1.1.1.;.;.' G  . . . . . . . .+.;.;.;.>.1.1.1.-.-.-.-.-.",
"1.[ [ [ 1.1.1.1.1.1.1.<.<.<.<.<.<.<.<.1.1.1.1.1.1.1.1.1.-.1.1.1.",
"1.1.1.[ 1.1.1.1.1.-.1.1.1.1.1.1.1.1.1.1.1.1.1.1.1.1.1.1.-.1.-.1.",
"1.1.1.1.1.1.1.-.-.-.-.-.1.1.} } } 1.1.1.1.-.-.1.1.1.1.1.1.1.-.-."
};
