/* XPM */
static char *result[] = {
/* columns rows colors chars-per-pixel */
"32 32 250 2 ",
"   c #161C2E",
".  c #1C232F",
"X  c #1E2232",
"o  c #1C2531",
"O  c #1E2630",
"+  c #1F2933",
"@  c #212631",
"#  c #232633",
"$  c #222A30",
"%  c #262A32",
"&  c #262F32",
"*  c #262835",
"=  c #262836",
"-  c #222D35",
";  c #252A3B",
":  c #2E2E39",
">  c #273032",
",  c #2B3033",
"<  c #283537",
"1  c #283637",
"2  c #2F3933",
"3  c #25313B",
"4  c #293638",
"5  c #36343D",
"6  c #3C3B3F",
"7  c #374336",
"8  c #3A4636",
"9  c #404D38",
"0  c #4C5B39",
"q  c #53633B",
"w  c #50603C",
"e  c #586A3E",
"r  c #5F703E",
"t  c #3E3941",
"y  c #333848",
"u  c #463F45",
"i  c #3E4145",
"p  c #3F5542",
"a  c #484245",
"s  c #494545",
"d  c #4C4D4D",
"f  c #415944",
"g  c #435B45",
"h  c #414755",
"j  c #424755",
"k  c #4E5157",
"l  c #425B53",
"z  c #4F535D",
"x  c #595954",
"c  c #6C5E56",
"v  c #6F5D58",
"b  c #476248",
"n  c #55744E",
"m  c #48645A",
"M  c #51705F",
"N  c #6A6A42",
"B  c #6A6B44",
"V  c #617440",
"C  c #6B7F41",
"Z  c #697E42",
"A  c #767547",
"S  c #7F7E49",
"D  c #7F7E4A",
"F  c #66635A",
"G  c #67655C",
"H  c #67665D",
"J  c #7C6A5D",
"K  c #7C6E5D",
"L  c #505462",
"P  c #505562",
"I  c #5C5C61",
"U  c #547462",
"Y  c #557663",
"T  c #577865",
"R  c #587B67",
"E  c #6D717C",
"W  c #807E4A",
"Q  c #806B5F",
"!  c #806B60",
"~  c #876F64",
"^  c #827F6D",
"/  c #977B6B",
"(  c #987D6B",
")  c #9B7F6D",
"_  c #5E8152",
"`  c #718642",
"'  c #778D43",
"]  c #718844",
"[  c #728844",
"{  c #7B9244",
"}  c #799146",
"|  c #608453",
" . c #608555",
".. c #668D59",
"X. c #668E59",
"o. c #689058",
"O. c #699159",
"+. c #6C975C",
"@. c #709C5E",
"#. c #729F5F",
"$. c #5C806A",
"%. c #5F846D",
"&. c #648D72",
"*. c #679175",
"=. c #75A361",
"-. c #79A863",
";. c #918E4C",
":. c #829A46",
">. c #849D47",
",. c #829B48",
"<. c #94924F",
"1. c #99964F",
"2. c #9D9950",
"3. c #9F9C52",
"4. c #A29F52",
"5. c #87A148",
"6. c #89A348",
"7. c #8BA649",
"8. c #8BA64A",
"9. c #93AF4C",
"0. c #99B64D",
"q. c #99B74D",
"w. c #9BB94E",
"e. c #A8A453",
"r. c #A9A655",
"t. c #B3AF57",
"y. c #B5B058",
"u. c #BAB559",
"i. c #BCB85A",
"p. c #BFBA5B",
"a. c #A18A6E",
"s. c #A88E72",
"d. c #AB9373",
"f. c #AF9574",
"g. c #B39577",
"h. c #B29677",
"j. c #B19C79",
"k. c #B99979",
"l. c #C2A47F",
"z. c #8B8E97",
"x. c #A29F91",
"c. c #B8A183",
"v. c #B8AF8B",
"b. c #999BA3",
"n. c #A7A9B0",
"m. c #A8AAB1",
"M. c #B6B8BE",
"N. c #CBAB82",
"B. c #CAAF82",
"V. c #D0AF83",
"C. c #CBB28B",
"Z. c #CCB488",
"A. c #CEBA8D",
"S. c #D0B084",
"D. c #D2B387",
"F. c #D4B385",
"G. c #D9B888",
"H. c #D8BB8A",
"J. c #D9BD8C",
"K. c #D3B791",
"L. c #DCC795",
"P. c #D3C699",
"I. c #E3C18C",
"U. c #E4C38E",
"Y. c #E4C590",
"T. c #E5C590",
"R. c #E5C792",
"E. c #E7CB95",
"W. c #E7CD97",
"Q. c #E8CD97",
"!. c #E7C89A",
"~. c #E7CD98",
"^. c #E7CB9C",
"/. c #E9D19B",
"(. c #EAD39D",
"). c #EAD59F",
"_. c #EBD59F",
"`. c #D5CBA1",
"'. c #E8CDA1",
"]. c #E1D5A3",
"[. c #EAD2A0",
"{. c #EBD7A1",
"}. c #EAD2A4",
"|. c #EAD3A4",
" X c #ECD9A3",
".X c #ECD9A4",
"XX c #ECD9A6",
"oX c #EDDDA7",
"OX c #EEDDA7",
"+X c #ECD9A9",
"@X c #EDDBA8",
"#X c #EDDBAB",
"$X c #EEDFA9",
"%X c #EEDDAD",
"&X c #EEDFAF",
"*X c #EBD4B0",
"=X c #ECD4B0",
"-X c #EDD9B7",
";X c #EFE1AB",
":X c #F0E2B0",
">X c #F0E3B0",
",X c #F1E4B5",
"<X c #F1E5B5",
"1X c #F0E0B8",
"2X c #F2E6BB",
"3X c #F2E7BB",
"4X c #C3C2C3",
"5X c #C5C6CB",
"6X c #F3E8C0",
"7X c #F4EAC5",
"8X c #F2E4C9",
"9X c #F3E3CC",
"0X c #F4E8CA",
"qX c #F5ECCA",
"wX c #F4E8CD",
"eX c #F5ECCE",
"rX c #F5E7D3",
"tX c #F4E8D3",
"yX c #F6EED0",
"uX c #F7EFD5",
"iX c #F6EBDB",
"pX c #F7EFDB",
"aX c #F7F0D5",
"sX c #F7F0D8",
"dX c #F8F1DA",
"fX c #F8F2DA",
"gX c #F8F0DC",
"hX c #F9F4DF",
"jX c #E1E1E0",
"kX c #E2E2E5",
"lX c #E2E3E5",
"zX c #F8EFE2",
"xX c #F9F3E0",
"cX c #F8F0E2",
"vX c #F9F4E0",
"bX c #F8F1E4",
"nX c #FAF5E5",
"mX c #FAF6E5",
"MX c #FBF7EA",
"NX c #FBF8EA",
"BX c #FCF9EF",
"VX c #F0F1F2",
"CX c #F1F1F2",
"ZX c #FBF7F0",
"AX c #FBF7F1",
"SX c #FCF9F2",
"DX c #FDFBF4",
"FX c #FDFBF5",
"GX c #FEFDFA",
"HX c white",
/* pixels */
"p.w.w.w.w.w.w.w.w.w.w.w.p.w.w.w.w.w.w.w.w.w.w.w.p.p.p.p.p.w.w.w.",
"w.w.w.w.w.-.-.-.-.w.w.w.w.w.p.p.w.w.w.w.w.w.w.w.p.w.w.w.w.w.w.w.",
"-.-.-.-.-.-.-.-.-.-.w.w.p.p.p.p.p.w.w.w.w.w.w.w.w.w.-.-.w.w.w.-.",
"-.-.-.-.-.-.-.-.-.-.p.p.p.p.p.p.p.p.p.p.p.-.-.w.w.-.-.-.-.w.w.w.",
"w.w.-.-.-.-.-.-.-.-.-.-.y.r.r.p.p.y.r.r.#.-.-.-.-.-.w.w.-.-.w.w.",
"w.w.w.-.-.w.w.w.-.-.-.b 4   @ B B 4     4 V w.-.-.w.w.w.w.-.-.w.",
"w.w.w.-.w.w.w.,.w & &     P P     y z.lXh   & & V } 9.w.w.w.w.w.",
"w.w.w.w.w.w.w.7         E HXVXn.x.lXHXHXkXy         9 -.-.-.-.w.",
"w.*.*.*.w.w.D   j CXHXT.gXHXHXHXiXZXHXHXHX7XmXHXhXd o ..-.-.-.-.",
"*.*.*.*.*.p., ; jXHXHXU.'.GXHXHX9X'.SXFXGXDXHXHXHXP.i f +.-.-.-.",
"-.p.p.R m S   H aXHXHXoXQ.6XmXBXpX-X/.$X1XGXHXHXMXW.s   > w.w.-.",
"w.p.3.,     s J.+XNXdXMXMXuX>XaXBXHX8XR.|.NXHXeX[.*X4Xy O Z w.w.",
"p.p.<.      6 B. X;XvXHXHXBX,XaXHXHXrXI.HXHXHXzX=XHXHXHXL 7 9.w.",
"-.p.p.+.-     c j.L.`.5XlXGX2X:X7XNXXX.XBXHXHXbXwXHXHXHXL   8.w.",
"-.-.-.-.-         ^ G   P 1XOX7XhX6X6XhXMXfXHXqX;XxXHXnXk   8.-.",
"w.w.w.e M.E       d ;Xd   I.cXHXHXHXHXHXHXDX;XyXHXhX].x   e w.w.",
"w.w.X.1 m.E n.b.  z hXv.  ~.cXHXHXHXtXHXHXSXQ.SXHXhXA.    e w.w.",
"-.-. .      E E   P HXMX;X;X(.{.dXhXQ.0XhXsXR.(.).;XZ.  O [ w.w.",
"w.w.}             I AXnX>X7XMXMX3X;X>XfXMXnXoX@X X{.H.F > 9.w.w.",
"w.w.}             h.I._.7XHXHXHXMX{.mXHXHXGXaXnX{.I.N.K   e w.w.",
"w.w.w.V O     = ~ S.I.I.Y.&X<X%X^.U.}.<X<X#X!.K.l.V.J #   W p.w.",
"w.w.w.w.] Z   X v G.I.F.g.T.E.I.I.I.D.c.C.Y.I.V./ u *   A p.p.p.",
"w.w.w.w.0.:.0   X a Q Q ~ g.V.k.( a.d.! ) f.s.( t   + n O.-.-.-.",
"-.w.w.w.>.' C $         5 u u u t       u * : t     p _ | @.-.-.",
"-.-.w.w.{ ' ' ` 8 .       8 8 8 8 8 8 8         < g _ _ ' 6.w.-.",
"w.w.w.w.Y M M M ' q $ 3 l M M M ' ' ' ' r N % 2 ` _ _ ' ' 7.w.w.",
"w.w.*.*.&.Y M M M ' M M M M M M M ' ' ' ;.;.;.;.' _ _ ' 5.w.w.w.",
"w.*.*.*.p.i.%.T U M M M ;.;.;.;.;.' ' ;.;.;.;.;.;.2.o.=.q.w.w.w.",
"*.*.*.p.p.p.p.p.t.$.$.e.1.;.;.;.;.;.;.;.;.4.e.e.e.p.p.w.w.w.w.w.",
"p.*.*.*.p.p.p.p.p.p.p.p.i.u.u.u.u.u.u.u.u.i.p.p.p.p.p.p.w.p.p.p.",
"p.p.p.*.p.p.p.p.p.w.p.p.p.p.p.p.p.p.p.p.p.p.p.p.p.p.p.p.w.p.w.p.",
"p.p.p.p.p.p.p.w.w.w.w.w.p.p.-.-.-.p.p.p.p.w.w.p.p.p.p.p.p.p.w.w."
};
