/* XPM */
static char *_4fb6e655f3c46d4de32f94003dc5ccc7x77uSHqGWO2bTHV[] = {
/* columns rows colors chars-per-pixel */
"32 32 181 2 ",
"   c #161C2E",
".  c #171F31",
"X  c #1C232F",
"o  c #172132",
"O  c #1A2434",
"+  c #1C2D34",
"@  c #1B273A",
"#  c #1A2B3B",
"$  c #1A323E",
"%  c #1C3A3D",
"&  c #202630",
"*  c #242E34",
"=  c #2B2F33",
"-  c #273032",
";  c #2B3535",
":  c #233936",
">  c #2C3936",
",  c #25303D",
"<  c #293438",
"1  c #333735",
"2  c #274339",
"3  c #2B413A",
"4  c #2B4C3B",
"5  c #36463A",
"6  c #3C4D3B",
"7  c #2F563E",
"8  c #30563E",
"9  c #404339",
"0  c #4A4D3B",
"q  c #48573A",
"w  c #53553E",
"e  c #52633D",
"r  c #5A6C3E",
"t  c #60743F",
"y  c #1E2D41",
"u  c #1C3442",
"i  c #1D3C45",
"p  c #233244",
"a  c #2A3742",
"s  c #22364B",
"d  c #233A4E",
"f  c #2A3C4A",
"g  c #313E40",
"h  c #253E53",
"j  c #1D4241",
"k  c #1F4944",
"l  c #1E444D",
"z  c #1F4C52",
"x  c #244D42",
"c  c #33434C",
"v  c #265949",
"b  c #385842",
"n  c #264155",
"m  c #2D4452",
"M  c #29445A",
"N  c #274B5B",
"B  c #2A485E",
"V  c #334654",
"C  c #3B4D52",
"Z  c #205156",
"A  c #235C55",
"S  c #22555A",
"D  c #235C5E",
"F  c #3E5552",
"G  c #38555B",
"H  c #26634F",
"J  c #386C46",
"K  c #3B764A",
"L  c #256758",
"P  c #297459",
"I  c #2A7F5F",
"U  c #337F57",
"Y  c #295563",
"T  c #295865",
"R  c #3B5761",
"E  c #256565",
"W  c #286767",
"Q  c #286369",
"!  c #276C6C",
"~  c #286C6D",
"^  c #2A7E64",
"/  c #27716F",
"(  c #28746F",
")  c #297B6E",
"_  c #435C46",
"`  c #476248",
"'  c #5F6141",
"]  c #407C48",
"[  c #476358",
"{  c #44635E",
"}  c #4E6D5E",
"|  c #546A56",
" . c #597B52",
".. c #676843",
"X. c #637841",
"o. c #757647",
"O. c #7C7C49",
"+. c #626A50",
"@. c #697556",
"#. c #435B66",
"$. c #486469",
"%. c #506A69",
"&. c #527462",
"*. c #5D7866",
"=. c #486C73",
"-. c #5C7170",
";. c #567C7C",
":. c #35875A",
">. c #2C8765",
",. c #2D8C66",
"<. c #2B826B",
"1. c #2F956A",
"2. c #309266",
"3. c #369A68",
"4. c #3EA164",
"5. c #45854B",
"6. c #498F4E",
"7. c #49904E",
"8. c #5E8154",
"9. c #439A5A",
"0. c #6C8143",
"q. c #728944",
"w. c #7B9346",
"e. c #608556",
"r. c #668E59",
"t. c #6C965C",
"y. c #6F9B5E",
"u. c #729E5F",
"i. c #4AA45B",
"p. c #4DAC5E",
"a. c #52A354",
"s. c #56AC56",
"d. c #53AA58",
"f. c #55B25B",
"g. c #5AB659",
"h. c #5E846C",
"j. c #718364",
"k. c #638B71",
"l. c #679175",
"z. c #74957E",
"x. c #44A661",
"c. c #47A860",
"v. c #79A863",
"b. c #86874E",
"n. c #8A894C",
"m. c #829B48",
"M. c #95924F",
"N. c #838D5B",
"B. c #979550",
"V. c #9C9A51",
"C. c #A09C53",
"Z. c #86A049",
"A. c #89A44A",
"S. c #8DA94A",
"D. c #93AF4C",
"F. c #93B04C",
"G. c #99B64D",
"H. c #9BB94E",
"J. c #AAA655",
"K. c #ABA855",
"L. c #B1AE57",
"P. c #B4B058",
"I. c #BBB65A",
"U. c #BFBA5B",
"Y. c #577982",
"T. c #5D898A",
"R. c #60858C",
"E. c #629595",
"W. c #669D9D",
"Q. c #6C9A99",
"!. c #73A9AA",
"~. c #7EB5B5",
"^. c #A2AD93",
"/. c #ACBC9E",
"(. c #94B9A8",
"). c #87BDBE",
"_. c #B1C5A8",
"`. c #BFD7B8",
"'. c #C1D7B5",
"]. c #8CC3C4",
"[. c #94C7C2",
/* pixels */
"U.H.H.H.H.H.H.H.H.H.H.H.U.H.H.H.H.H.H.H.H.H.H.H.U.U.U.U.U.H.H.H.",
"H.H.H.H.H.v.v.v.v.H.H.H.H.H.U.U.H.H.H.H.H.H.H.H.U.H.H.H.H.H.H.H.",
"v.v.v.v.v.v.v.v.v.v.H.H.U.U.P.w ..m.m.r r D.H.H.H.H.v.v.H.H.H.v.",
"v.v.v.v.v.v.v.v.e.` C...o.M.9   2 > & : : _ u.A.D.v.v.v.v.H.H.H.",
"H.H.v.v.v.v.v.t.    O O : > & b g.7 2 a.g.3 <   O r.H.H.v.v.H.H.",
"H.H.H.v.v.H.H.w.      7.g.6.7 4 g.a.J g.a.+ $     e H.H.H.v.v.H.",
"H.H.H.v.H.H.H.5   u O g.g.p.g.b f.i.9.f.x D / u     X.H.H.H.H.H.",
"H.H.H.H.H.H.H.* l / D K x.1.f.p.1.1.U J % / / l D l   r.v.v.v.H.",
"H.l.l.l.H.H.U.' Z / <.1.1.p.g.g.c.>.o + O l / l W /   e.v.v.v.v.",
"l.l.l.l.l.P.0 = o D <.1.1.c.g.g.x.k 8 s.5.  L / S $ * r.v.v.v.v.",
"v.U.U.l.k.M.        $ P <.<.x.g.x.j L 4.9.v >.( D i - 5 q.H.H.v.",
"H.U.U.P.9     O E D o l ) 1.1.3.3.,.,.1.,.I 1.) / W @ @   D.H.H.",
"U.U.U.J.o n y W / / l Z 1.1.1.1.) / / ) 1.1.1.) D u M d O H.H.H.",
"v.U.U.t.O M B Q / / Q ~ ) 1.1.<.Y T ~ ~ ) 1.<.( Z # y . 6 H.H.H.",
"v.v.v.u._ @ s # u M h o O % A i s B Y B Q A / / / ! s d o q.H.v.",
"H.H.H.S.t     j % O o 2 ] 4       d B B T i l / / Q B B # q H.H.",
"H.H.v.8.5   j i.p.v   g.g.s.:     y B B Y h # W D @ s y 5 Z.H.H.",
"v.v.v. .u z % d.g.6.% ] f.4.6.  8 4 o h s o   o o   o r 0.A.H.H.",
"H.H.H.6 / / l 8 a.g.:.2 2.1.P 6.g.s.2   p #.#.#.#.@ 1 X.m.H.H.H.",
"H.H.F.; l W D A H p.+ + H 1.x.f.9.K + Y.Q.].].].].R.  O.G.H.H.H.",
"H.D.r     # W 1.1.x.i >.I ^ 4.2.v o =.!.].].].].].).Y.& J.U.U.H.",
"H.w.  B M l E >.1.1.) 1.1.) ,.P     R.].].].].).!.W.=.  J.U.U.U.",
"H.q.X p M n . i / ( / ) ( / W i     V ).].].].).~.R f   b v.v.v.",
"v.A.e ; o h M u S / / / / D W # , $.a V [.[.`.'.-.f ;.a * v.v.v.",
"v.y.q.0.< m B B Y Q Y n u d N # , %.%.C /.^._.(.W.W.T.c ; F.H.v.",
"H.H.Z.q.} } { G G m @   o s M m g %.%.%.C m E.W.W.W.;.%.< m.H.H.",
"H.H.l.l.k.&.} } } q.} } [ [ { F F | %.%.C =.W.W.W.E.%.%.< m.H.H.",
"H.l.l.l.U.I.*.h.k.&.&.} V.I.B.o...r | *.C c T.E.Q.z. . .q.A.H.H.",
"l.l.l.U.U.U.U.U.U.l.l.U.U.U.I.L.V.n.n.b.+.w @.j.N.n.n.w.A.H.H.H.",
"U.l.l.l.U.U.U.U.U.U.U.U.U.U.U.U.I.V.n.n.n.n.n.n.n.K.L.I.H.U.U.U.",
"U.U.U.l.U.U.U.U.U.H.U.U.U.U.U.U.U.U.U.U.U.U.V.J.U.U.U.U.H.U.H.U.",
"U.U.U.U.U.U.U.H.H.H.H.H.U.U.v.v.v.U.U.U.U.H.H.U.U.U.U.U.U.U.H.H."
};
