/* XPM */
static char *_3b876d98fc449eed8955c7be2b048b1jsu47k8Gu7KLh78d[] = {
/* columns rows colors chars-per-pixel */
"32 32 177 2 ",
"   c #161C2E",
".  c #171F31",
"X  c #172232",
"o  c #1A2534",
"O  c #1D2D34",
"+  c #1A273A",
"@  c #1B2A3C",
"#  c #1B323D",
"$  c #1C3B3D",
"%  c #202630",
"&  c #222C33",
"*  c #273235",
"=  c #2A3635",
"-  c #24323B",
";  c #293338",
":  c #2B3D3B",
">  c #333735",
",  c #363A36",
"<  c #274338",
"1  c #2D463C",
"2  c #35483F",
"3  c #3F4D38",
"4  c #2C533F",
"5  c #30563E",
"6  c #404339",
"7  c #445239",
"8  c #48573A",
"9  c #53553E",
"0  c #52643D",
"q  c #586A3E",
"w  c #5F723F",
"e  c #1E2E41",
"r  c #1D3643",
"t  c #1C3C44",
"y  c #213245",
"u  c #2A3742",
"i  c #22364B",
"p  c #23394D",
"a  c #2A3C4A",
"s  c #253D52",
"d  c #1E4141",
"f  c #1F4944",
"g  c #1E444C",
"h  c #1F4C52",
"j  c #224C44",
"k  c #364648",
"l  c #2F5C43",
"z  c #225A4C",
"x  c #3B5142",
"c  c #335E41",
"v  c #264255",
"b  c #244756",
"n  c #2D4351",
"m  c #29465B",
"M  c #264A5A",
"N  c #2A485E",
"B  c #334654",
"V  c #3B4D52",
"C  c #225152",
"Z  c #22565B",
"A  c #235C5D",
"S  c #3D5552",
"D  c #3E5D5E",
"F  c #2F6C4D",
"G  c #386944",
"H  c #316749",
"J  c #3C7347",
"K  c #276651",
"L  c #256854",
"P  c #28785C",
"I  c #347952",
"U  c #294F61",
"Y  c #295663",
"T  c #295B66",
"R  c #3B5761",
"E  c #246465",
"W  c #28676B",
"Q  c #266868",
"!  c #266B6B",
"~  c #286A6C",
"^  c #297663",
"/  c #27716F",
"(  c #28746E",
")  c #297B6E",
"_  c #415A52",
"`  c #4B6546",
"'  c #417C49",
"]  c #54754F",
"[  c #4E6D5E",
"{  c #526858",
"}  c #5C7A53",
"|  c #696F4D",
" . c #617440",
".. c #697E42",
"X. c #767547",
"o. c #7F7F4A",
"O. c #626A50",
"+. c #435B66",
"@. c #486469",
"#. c #506A69",
"$. c #527462",
"%. c #5C7765",
"&. c #567966",
"*. c #486C73",
"=. c #5C7170",
"-. c #567C7C",
";. c #368E5E",
":. c #2C8763",
">. c #2D8C67",
",. c #2C846A",
"<. c #2D8E6B",
"1. c #2F956A",
"2. c #319265",
"3. c #3A9E66",
"4. c #369A68",
"5. c #3FA264",
"6. c #45854C",
"7. c #498F4E",
"8. c #49904E",
"9. c #489955",
"0. c #6B8143",
"q. c #718844",
"w. c #7C9547",
"e. c #608556",
"r. c #668D59",
"t. c #6C975C",
"y. c #719C5E",
"u. c #4AA45B",
"i. c #4BAB5F",
"p. c #51A253",
"a. c #56B35B",
"s. c #5AB659",
"d. c #5E836C",
"f. c #718364",
"g. c #739F60",
"h. c #679175",
"j. c #74957E",
"k. c #43A562",
"l. c #47A860",
"z. c #75A261",
"x. c #79A863",
"c. c #86874E",
"v. c #8A894C",
"b. c #819A48",
"n. c #94924F",
"m. c #838D5B",
"M. c #949250",
"N. c #9C9A51",
"B. c #89A44A",
"V. c #8EAA4A",
"C. c #92AE4C",
"Z. c #94B14C",
"A. c #98B64D",
"S. c #9BB94E",
"D. c #AAA655",
"F. c #ABA855",
"G. c #B1AE57",
"H. c #B5B158",
"J. c #BAB65A",
"K. c #BFBA5B",
"L. c #577982",
"P. c #5D898A",
"I. c #60858C",
"U. c #629595",
"Y. c #669D9D",
"T. c #6C9A99",
"R. c #73A9AA",
"E. c #7EB5B5",
"W. c #A2AD93",
"Q. c #ACBC9E",
"!. c #94B9A8",
"~. c #87BDBE",
"^. c #B1C5A8",
"/. c #BFD7B8",
"(. c #C1D7B5",
"). c #8CC3C4",
"_. c #94C7C2",
/* pixels */
"K.S.S.S.S.S.S.S.S.S.S.S.K.S.S.S.S.S.S.S.S.S.S.S.K.K.K.K.K.S.S.S.",
"S.S.S.S.S.x.x.x.x.S.S.S.S.S.K.K.S.S.S.S.S.S.S.S.K.S.S.S.S.S.S.S.",
"x.x.x.x.x.x.x.x.x.x.S.S.K.K.M.9 9 C...8 0 S.S.S.S.S.x.x.S.S.S.x.",
"x.x.x.x.x.x.x.x.r.e.D.n.n.D.    < o   < < ` r.w.b.x.x.x.x.S.S.S.",
"S.S.x.x.x.x.x.e.&   :     6   J s.O 5 s.p.= o   & t.S.S.x.x.S.S.",
"S.S.S.x.x.S.S...    O 6.s.' < G s.7.' s.' @ #     q S.S.S.x.x.S.",
"S.S.S.x.S.S.S.*   o < s.a.a.p.l a.u.u.i.d Q Q r o o  .S.S.S.S.S.",
"S.S.S.S.S.S.S.  g / C 7.k.1.s.l.1.1.I H # / / t / h   t.x.x.x.S.",
"S.h.h.h.S.S.K., A / ) 2.1.l.s.s.k.P X < o g Q g / Z   t.x.x.x.x.",
"h.h.h.h.h.K.o.6 r / 1.1.1.i.s.s.k.f 5 s.6.  ^ / t o 2 g.x.x.x.x.",
"x.K.K.h.h.n.        C ^ ,.,.i.a.k.d L 3.9.z 1.( / g     8 S.S.x.",
"S.K.K.K.X.,   X h g   g ) <.1.4.4.>.>.1.>.:.1.) / A e i   S.S.S.",
"K.K.K.D.  e o Z / / g g 1.1.1.1.) / / ) 1.1.1.) g @ N e 3 S.S.S.",
"x.K.K.t.@ m m ~ / / ~ Q ) 1.1.<.T Y ~ W ( 1.) ( Q t + o o Z.S.S.",
"x.x.x.y.: y v p M Y y o o t t o p N Y N Y A Q / / Q v m + w S.x.",
"S.S.S.Z.q.X     . e   G ' o     o N N N Y g # / / Z N v + w S.S.",
"S.S.x.r.1   j 5.;.o 5 s.s.p.O     @ p N U M + C Z o + - 7 b.S.S.",
"x.x.x.] o X F s.a.c - 9.l.5.4 1 8.c . i i o         ; 0.q.V.S.S.",
"S.S.S.` E E # 7.s.s.L l 1.1.I s.s.s.O   y +.+.+.+.+ > 0.V.S.S.S.",
"S.S.S.: Q / g t H a.X # K >.i.k.2.F o L.T.).).).).I.  o.S.S.S.S.",
"S.S.V.& # t Q <.1.i.$ :.P ,.3.1.z X *.R.).).).).).~.L.% D.K.K.S.",
"S.C.3 @ e t ( <.1.1.) 1.<.) ,.P     I.).).).).~.R.Y.*.  D.K.K.K.",
"S.B.  v N s # C ) ) / ( ( / Q t     B ~.).).).~.E.R a   x x.x.x.",
"x.C.= o y p i + C / / / / Z Q + - @.u B _._./.(.=.a -.u & x.x.x.",
"x.z.0.0 % s N m M W T b r e b @ - #.#.V Q.W.^.!.Y.Y.P.k = Z.S.x.",
"S.A.w.q._ S D N N N e o   @ p n x #.#.#.V n U.Y.Y.Y.-.#.; b.S.S.",
"S.S.h.&.&.$.[ [ [ q.[ [ [ &.$._ S { #.#.V *.Y.Y.Y.U.#.#.; b.S.S.",
"S.h.h.h.K.J.$.[ d.&.[ [ v.J.H.X.| ..} %.V k P.U.T.j.} } q.B.S.S.",
"h.h.h.K.K.K.K.K.K.h.h.K.K.K.K.K.N.v.v.c.O.9 | f.m.v.v.w.B.S.S.S.",
"K.h.h.h.K.K.K.K.K.K.K.K.K.K.K.K.J.N.v.v.v.v.v.v.v.F.G.J.S.K.K.K.",
"K.K.K.h.K.K.K.K.K.S.K.K.K.K.K.K.K.K.K.K.K.K.N.D.K.K.K.K.S.K.S.K.",
"K.K.K.K.K.K.K.S.S.S.S.S.K.K.x.x.x.K.K.K.K.S.S.K.K.K.K.K.K.K.S.S."
};
